<svg width="640" height="420" viewBox="0 0 640 420" fill="none" xmlns="http://www.w3.org/2000/svg">
<g clip-path="url(#clip0_30_3)">
<g filter="url(#filter0_d_30_3)">
<path d="M316.71 71.8835C327.432 71.8835 336.125 63.191 336.125 52.4683C336.125 41.7456 327.432 33.0531 316.71 33.0531C305.987 33.0531 297.294 41.7456 297.294 52.4683C297.294 63.191 305.987 71.8835 316.71 71.8835Z" fill="#6FCF97"/>
</g>
<path d="M360.162 43.2749C359.614 41.4795 358.554 39.8835 357.111 38.6833C355.668 37.483 353.905 36.731 352.04 36.5198C351.996 36.5161 351.953 36.5161 351.909 36.5198C351.857 36.5034 351.803 36.4913 351.749 36.4834C345.248 35.6399 338.021 37.6905 333.156 42.1551C331.35 43.7864 329.906 45.7779 328.917 48.0013C328.015 46.7696 326.827 45.7762 325.454 45.1073C324.082 44.4383 322.568 44.1138 321.042 44.162C319.074 44.2921 317.194 45.0259 315.659 46.2634C314.123 47.5009 313.007 49.1819 312.462 51.0771C312.402 51.3087 312.418 51.5534 312.509 51.7748C312.599 51.9963 312.759 52.1826 312.963 52.306C313.548 52.8062 314.244 53.1601 314.992 53.3385C316.599 53.6803 318.221 53.993 319.842 54.2766C323.013 54.8292 326.2 55.2776 329.404 55.6218C331.52 55.8472 333.641 56.0265 335.767 56.1598C340.158 56.4362 344.572 56.5016 348.971 56.3634C351.153 56.2907 353.247 56.218 355.239 55.2582C356.691 54.5442 357.932 53.464 358.839 52.1242C359.693 50.8355 360.253 49.3753 360.482 47.8464C360.711 46.3175 360.601 44.757 360.162 43.2749Z" fill="#E6E6E6"/>
<path d="M320.22 71.5607C320.184 70.7471 320.047 69.9412 319.813 69.1611C319.263 67.3659 318.201 65.7704 316.757 64.5704C315.312 63.3704 313.549 62.6181 311.684 62.406C311.643 62.4023 311.601 62.4023 311.56 62.406C311.505 62.3904 311.449 62.3783 311.393 62.3696C307.795 61.9289 304.144 62.3042 300.711 63.4676C295.432 65.2346 290.8 68.7975 288.568 73.8875C287.665 72.655 286.476 71.6612 285.102 70.9922C283.729 70.3232 282.213 69.9992 280.686 70.0482C278.718 70.1783 276.838 70.9121 275.303 72.1496C273.767 73.3871 272.651 75.0681 272.106 76.9633C272.049 77.1949 272.067 77.4384 272.157 77.6591C272.247 77.8798 272.405 78.0664 272.607 78.1922C273.193 78.691 273.888 79.0447 274.636 79.2247C276.25 79.5665 277.864 79.8792 279.493 80.1628C282.664 80.7154 285.848 81.1638 289.048 81.508C295.548 82.2058 302.088 82.4535 308.623 82.2496C310.797 82.1769 312.898 82.1042 314.89 81.1444C316.34 80.4301 317.578 79.3499 318.483 78.0104C319.757 76.1109 320.368 73.8434 320.22 71.5607Z" fill="#E6E6E6"/>
<path d="M573.083 307.146C573.362 320.384 571.535 333.582 567.671 346.246C567.535 346.706 567.373 347.166 567.211 347.626H487.549C488.688 342.019 490.495 336.568 492.934 331.391C499.563 317.32 510.387 305.279 521.075 293.319C535.795 276.84 550.164 260.496 552.437 239.065C558.271 247.96 562.928 257.574 566.291 267.667C562.174 269.192 558.396 271.508 555.17 274.486C554.277 275.324 553.329 276.542 553.79 277.706C554.222 278.68 555.413 279.005 556.468 279.221C559.012 279.708 561.555 280.195 564.099 280.655C566.101 281.061 568.131 281.44 570.16 281.819C571.944 290.148 572.923 298.629 573.083 307.146Z" fill="#F2F2F2"/>
<path d="M640 298.379C627.228 306.145 619.11 318.159 612.481 331.607C606.712 332.922 601.386 335.72 597.03 339.725C596.11 340.564 595.163 341.781 595.65 342.945C596.056 343.919 597.274 344.244 598.329 344.46C600.845 344.947 603.416 345.435 605.933 345.895C605.689 346.463 605.446 347.058 605.202 347.626H520.778C524.61 342.458 528.854 337.607 533.469 333.123C534.47 332.121 535.498 331.174 536.553 330.2C547.315 320.474 559.673 312.675 573.083 307.146C594.209 298.314 617.312 295.287 640 298.379Z" fill="#F2F2F2"/>
<path d="M534.849 347.626H459.678C459.268 341.607 459.304 335.565 459.787 329.551C462.79 292.399 483.003 257.006 513.499 235.575C509.602 249.456 511.605 263.256 515.664 277.11C515.096 277.3 514.527 277.462 514.013 277.679C509.896 279.204 506.118 281.52 502.892 284.498C501.999 285.336 501.052 286.554 501.512 287.718C501.918 288.692 503.135 289.016 504.191 289.233C506.734 289.72 509.278 290.207 511.794 290.667C513.824 291.073 515.853 291.452 517.883 291.858C518.83 292.02 519.777 292.209 520.724 292.399C520.859 292.723 520.94 293.021 521.075 293.319C525.838 306.442 531.033 319.674 533.469 333.123C534.071 336.498 534.487 339.903 534.713 343.324C534.794 344.758 534.849 346.192 534.849 347.626Z" fill="#F2F2F2"/>
<path d="M125.165 307.146C125.444 320.384 123.617 333.582 119.753 346.246C119.617 346.706 119.455 347.166 119.293 347.626H39.6307C40.7695 342.019 42.5774 336.568 45.0156 331.391C51.645 317.32 62.4686 305.279 73.157 293.319C87.8771 276.84 102.245 260.496 104.519 239.065C110.353 247.96 115.01 257.574 118.373 267.667C114.256 269.192 110.478 271.508 107.251 274.486C106.358 275.324 105.411 276.542 105.871 277.706C106.304 278.68 107.495 279.005 108.55 279.221C111.094 279.708 113.637 280.195 116.181 280.655C118.183 281.061 120.213 281.44 122.242 281.819C124.026 290.148 125.005 298.629 125.165 307.146Z" fill="#F2F2F2"/>
<path d="M192.082 298.379C179.31 306.145 171.192 318.159 164.562 331.607C158.793 332.922 153.468 335.72 149.112 339.725C148.192 340.564 147.245 341.781 147.732 342.945C148.138 343.919 149.355 344.244 150.41 344.46C152.927 344.947 155.498 345.435 158.014 345.895C157.771 346.463 157.527 347.058 157.284 347.626H72.8593C76.6917 342.458 80.9358 337.607 85.55 333.123C86.5511 332.121 87.5794 331.174 88.6347 330.2C99.3967 320.474 111.754 312.675 125.164 307.146C146.291 298.314 169.393 295.287 192.082 298.379Z" fill="#F2F2F2"/>
<path d="M86.93 347.626H11.7599C11.3494 341.607 11.3856 335.565 11.8682 329.551C14.8717 292.399 35.0848 257.006 65.5804 235.575C61.6839 249.456 63.6862 263.256 67.7451 277.11C67.177 277.3 66.6087 277.462 66.0945 277.679C61.9778 279.204 58.1996 281.52 54.9733 284.498C54.0803 285.336 53.1333 286.554 53.5933 287.718C53.999 288.692 55.2167 289.016 56.272 289.233C58.8156 289.72 61.3592 290.207 63.8756 290.667C65.9051 291.073 67.9345 291.452 69.9639 291.858C70.9109 292.02 71.8581 292.209 72.8051 292.399C72.9403 292.723 73.0216 293.021 73.1569 293.319C77.9193 306.442 83.1146 319.674 85.55 333.123C86.1528 336.498 86.5683 339.903 86.7948 343.324C86.8759 344.758 86.93 346.192 86.93 347.626Z" fill="#F2F2F2"/>
<path d="M366.777 316.067L433.943 322.029L434.663 322.095V35.4997C434.423 35.3325 434.183 35.1652 433.943 34.998C419.945 25.2068 404.803 17.1632 388.853 11.046L385.421 58.3828L385.108 62.7166L381.712 109.661L380.665 124.102L366.9 314.394L366.777 316.067Z" fill="#E6E6E6"/>
<path d="M200.676 30.1625C200.196 30.4679 199.716 30.7733 199.237 31.0932V322.095L200.676 321.964L267.115 316.067L266.992 314.394L253.227 124.102L252.18 109.661L248.784 62.7166L248.471 58.3828L244.872 8.74094C229.35 14.1213 214.516 21.3114 200.676 30.1625Z" fill="#E6E6E6"/>
<path d="M199.237 31.0932C198.27 31.7185 197.302 32.3584 196.35 33.0056V326.065C196.35 333.387 200.691 339.524 206.493 341.088C207.442 341.344 208.42 341.474 209.402 341.473H425.217C426.197 341.474 427.173 341.345 428.119 341.088C430.275 340.489 432.23 339.318 433.776 337.699C436.723 334.549 438.334 330.378 438.269 326.065V38.1028C437.077 37.223 435.877 36.3504 434.663 35.4997C434.423 35.3324 434.183 35.1652 433.943 34.998V326.065C433.945 327.008 433.832 327.948 433.609 328.864C432.583 333.191 429.202 336.361 425.217 336.361H209.402C204.588 336.361 200.676 331.744 200.676 326.065V30.1625C200.196 30.4679 199.716 30.7733 199.237 31.0932Z" fill="#E6E6E6"/>
<path d="M436.106 58.3857H198.511V62.7188H436.106V58.3857Z" fill="#E6E6E6"/>
<path d="M363.337 3.11286C361.898 2.75656 360.458 2.42208 359.004 2.10941V119.768H363.337V3.11286Z" fill="#E6E6E6"/>
<path d="M275.615 0.647846C274.168 0.916888 272.721 1.1932 271.281 1.49133V119.768H275.615V0.647846Z" fill="#E6E6E6"/>
<path d="M151.929 333.889C151.928 336.375 152.404 338.839 153.332 341.146C153.689 342.04 154.114 342.906 154.605 343.734C155.238 344.815 155.974 345.833 156.801 346.774C158.627 348.856 160.877 350.523 163.4 351.666C165.923 352.808 168.661 353.399 171.431 353.398H455.968C461.14 353.398 466.101 351.344 469.758 347.686C473.415 344.029 475.47 339.068 475.47 333.896C475.47 328.724 473.415 323.764 469.758 320.106C466.101 316.449 461.14 314.394 455.968 314.394H171.431C166.261 314.399 161.305 316.455 157.649 320.109C153.993 323.764 151.936 328.72 151.929 333.889Z" fill="#E6E6E6"/>
<path d="M198.511 124.103L434.662 124.103V109.66L198.511 109.66V124.103Z" fill="#E6E6E6"/>
<path d="M326.697 113.271H306.476C306.476 111.164 307.313 109.143 308.803 107.654C310.292 106.164 312.313 105.327 314.42 105.327H318.753C319.796 105.327 320.829 105.532 321.793 105.932C322.757 106.331 323.632 106.916 324.37 107.654C325.108 108.391 325.693 109.267 326.092 110.231C326.491 111.195 326.697 112.228 326.697 113.271H326.697Z" fill="#E6E6E6"/>
<path d="M0 345.029C6.31685 352.514 13.1492 359.548 20.4472 366.08H606.944C614.242 359.548 621.074 352.514 627.391 345.029H0Z" fill="#3F3D56"/>
<path d="M288.449 274.634V349.21H340.694V274.634C340.695 274.098 340.524 273.575 340.206 273.144C339.888 272.712 339.44 272.393 338.927 272.235C338.686 272.155 338.433 272.116 338.178 272.118H290.972C290.641 272.118 290.314 272.182 290.008 272.309C289.702 272.435 289.424 272.62 289.189 272.853C288.955 273.087 288.769 273.365 288.642 273.67C288.515 273.976 288.45 274.303 288.449 274.634ZM308.838 300.259C308.852 298.789 309.446 297.384 310.49 296.349C311.535 295.314 312.945 294.734 314.415 294.734C315.886 294.734 317.296 295.314 318.341 296.349C319.385 297.384 319.979 298.789 319.993 300.259V308.912C319.985 310.386 319.394 311.797 318.349 312.837C317.304 313.877 315.89 314.461 314.415 314.461C312.941 314.461 311.527 313.877 310.482 312.837C309.437 311.797 308.846 310.386 308.838 308.912V300.259Z" fill="#2F2E41"/>
<path d="M288.29 346.825V354.016C288.291 354.389 288.439 354.746 288.701 355.01C288.964 355.274 289.32 355.424 289.693 355.427H339.451C339.824 355.425 340.181 355.276 340.444 355.011C340.707 354.747 340.855 354.389 340.855 354.016V346.825H288.29Z" fill="#3F3D56"/>
<path d="M206.26 162.277V298.441C206.262 300.176 206.952 301.84 208.179 303.067C209.406 304.294 211.07 304.984 212.805 304.985H414.586C416.321 304.984 417.985 304.294 419.212 303.067C420.439 301.84 421.129 300.176 421.13 298.441V162.277C421.126 160.543 420.435 158.882 419.209 157.656C417.982 156.431 416.32 155.742 414.586 155.74H212.805C211.071 155.742 209.409 156.431 208.182 157.656C206.956 158.882 206.265 160.543 206.26 162.277Z" fill="#3F3D56"/>
<g filter="url(#filter1_d_30_3)">
<path d="M210.994 163.971V296.761C210.996 297.688 211.365 298.577 212.02 299.233C212.676 299.888 213.565 300.257 214.492 300.259H412.906C413.834 300.257 414.722 299.888 415.378 299.233C416.033 298.577 416.402 297.688 416.404 296.761V163.971C416.404 163.043 416.036 162.152 415.38 161.495C414.724 160.838 413.835 160.468 412.906 160.466H214.492C213.563 160.468 212.674 160.838 212.018 161.495C211.363 162.152 210.994 163.043 210.994 163.971V163.971Z" fill="#1D1D42"/>
</g>
<path d="M251.452 357.121C251.654 357.374 251.911 357.579 252.203 357.718C252.495 357.858 252.816 357.93 253.139 357.928H371.183C371.506 357.928 371.825 357.856 372.116 357.716C372.408 357.577 372.664 357.375 372.868 357.124C373.071 356.874 373.216 356.581 373.292 356.267C373.368 355.953 373.373 355.627 373.307 355.311L371.474 346.607C371.398 346.252 371.235 345.921 370.999 345.646C370.762 345.37 370.461 345.158 370.122 345.029C369.876 344.932 369.615 344.883 369.351 344.883H254.965C254.701 344.883 254.439 344.932 254.194 345.029C253.855 345.158 253.553 345.37 253.317 345.646C253.081 345.921 252.917 346.252 252.841 346.607L251.009 355.311C250.944 355.626 250.95 355.953 251.026 356.266C251.103 356.579 251.249 356.871 251.452 357.121Z" fill="#2F2E41"/>
<path d="M365.232 348.632H368.157C368.353 348.632 368.512 348.473 368.512 348.277V346.806C368.512 346.61 368.353 346.451 368.157 346.451H365.232C365.036 346.451 364.877 346.61 364.877 346.806V348.277C364.877 348.473 365.036 348.632 365.232 348.632Z" fill="#3F3D56"/>
<path d="M357.96 348.632H360.886C361.082 348.632 361.241 348.473 361.241 348.277V346.806C361.241 346.61 361.082 346.451 360.886 346.451H357.96C357.764 346.451 357.606 346.61 357.606 346.806V348.277C357.606 348.473 357.764 348.632 357.96 348.632Z" fill="#3F3D56"/>
<path d="M350.689 348.632H353.615C353.811 348.632 353.97 348.473 353.97 348.277V346.806C353.97 346.61 353.811 346.451 353.615 346.451H350.689C350.493 346.451 350.334 346.61 350.334 346.806V348.277C350.334 348.473 350.493 348.632 350.689 348.632Z" fill="#3F3D56"/>
<path d="M343.418 348.632H346.343C346.539 348.632 346.698 348.473 346.698 348.277V346.806C346.698 346.61 346.539 346.451 346.343 346.451H343.418C343.221 346.451 343.063 346.61 343.063 346.806V348.277C343.063 348.473 343.221 348.632 343.418 348.632Z" fill="#3F3D56"/>
<path d="M336.146 348.632H339.072C339.268 348.632 339.427 348.473 339.427 348.277V346.806C339.427 346.61 339.268 346.451 339.072 346.451H336.146C335.95 346.451 335.791 346.61 335.791 346.806V348.277C335.791 348.473 335.95 348.632 336.146 348.632Z" fill="#3F3D56"/>
<path d="M328.875 348.632H331.801C331.997 348.632 332.156 348.473 332.156 348.277V346.806C332.156 346.61 331.997 346.451 331.801 346.451H328.875C328.679 346.451 328.52 346.61 328.52 346.806V348.277C328.52 348.473 328.679 348.632 328.875 348.632Z" fill="#3F3D56"/>
<path d="M321.603 348.632H324.529C324.725 348.632 324.884 348.473 324.884 348.277V346.806C324.884 346.61 324.725 346.451 324.529 346.451H321.603C321.407 346.451 321.248 346.61 321.248 346.806V348.277C321.248 348.473 321.407 348.632 321.603 348.632Z" fill="#3F3D56"/>
<path d="M314.332 348.632H317.258C317.454 348.632 317.613 348.473 317.613 348.277V346.806C317.613 346.61 317.454 346.451 317.258 346.451H314.332C314.136 346.451 313.977 346.61 313.977 346.806V348.277C313.977 348.473 314.136 348.632 314.332 348.632Z" fill="#3F3D56"/>
<path d="M307.061 348.632H309.986C310.182 348.632 310.341 348.473 310.341 348.277V346.806C310.341 346.61 310.182 346.451 309.986 346.451H307.061C306.865 346.451 306.706 346.61 306.706 346.806V348.277C306.706 348.473 306.865 348.632 307.061 348.632Z" fill="#3F3D56"/>
<path d="M299.789 348.632H302.715C302.911 348.632 303.07 348.473 303.07 348.277V346.806C303.07 346.61 302.911 346.451 302.715 346.451H299.789C299.593 346.451 299.434 346.61 299.434 346.806V348.277C299.434 348.473 299.593 348.632 299.789 348.632Z" fill="#3F3D56"/>
<path d="M292.518 348.632H295.443C295.639 348.632 295.798 348.473 295.798 348.277V346.806C295.798 346.61 295.639 346.451 295.443 346.451H292.518C292.322 346.451 292.163 346.61 292.163 346.806V348.277C292.163 348.473 292.322 348.632 292.518 348.632Z" fill="#3F3D56"/>
<path d="M285.246 348.632H288.172C288.368 348.632 288.527 348.473 288.527 348.277V346.806C288.527 346.61 288.368 346.451 288.172 346.451H285.246C285.05 346.451 284.891 346.61 284.891 346.806V348.277C284.891 348.473 285.05 348.632 285.246 348.632Z" fill="#3F3D56"/>
<path d="M277.975 348.632H280.901C281.097 348.632 281.256 348.473 281.256 348.277V346.806C281.256 346.61 281.097 346.451 280.901 346.451H277.975C277.779 346.451 277.62 346.61 277.62 346.806V348.277C277.62 348.473 277.779 348.632 277.975 348.632Z" fill="#3F3D56"/>
<path d="M270.703 348.632H273.629C273.825 348.632 273.984 348.473 273.984 348.277V346.806C273.984 346.61 273.825 346.451 273.629 346.451H270.703C270.507 346.451 270.348 346.61 270.348 346.806V348.277C270.348 348.473 270.507 348.632 270.703 348.632Z" fill="#3F3D56"/>
<path d="M263.432 348.632H266.358C266.554 348.632 266.713 348.473 266.713 348.277V346.806C266.713 346.61 266.554 346.451 266.358 346.451H263.432C263.236 346.451 263.077 346.61 263.077 346.806V348.277C263.077 348.473 263.236 348.632 263.432 348.632Z" fill="#3F3D56"/>
<path d="M256.161 348.632H259.087C259.283 348.632 259.442 348.473 259.442 348.277V346.806C259.442 346.61 259.283 346.451 259.087 346.451H256.161C255.965 346.451 255.806 346.61 255.806 346.806V348.277C255.806 348.473 255.965 348.632 256.161 348.632Z" fill="#3F3D56"/>
<path d="M365.318 352.268H368.244C368.44 352.268 368.599 352.109 368.599 351.913V350.442C368.599 350.246 368.44 350.087 368.244 350.087H365.318C365.122 350.087 364.963 350.246 364.963 350.442V351.913C364.963 352.109 365.122 352.268 365.318 352.268Z" fill="#3F3D56"/>
<path d="M358.046 352.268H360.972C361.168 352.268 361.327 352.109 361.327 351.913V350.442C361.327 350.246 361.168 350.087 360.972 350.087H358.046C357.85 350.087 357.691 350.246 357.691 350.442V351.913C357.691 352.109 357.85 352.268 358.046 352.268Z" fill="#3F3D56"/>
<path d="M350.775 352.268H353.701C353.897 352.268 354.056 352.109 354.056 351.913V350.442C354.056 350.246 353.897 350.087 353.701 350.087H350.775C350.579 350.087 350.42 350.246 350.42 350.442V351.913C350.42 352.109 350.579 352.268 350.775 352.268Z" fill="#3F3D56"/>
<path d="M343.504 352.268H346.429C346.625 352.268 346.784 352.109 346.784 351.913V350.442C346.784 350.246 346.625 350.087 346.429 350.087H343.504C343.308 350.087 343.149 350.246 343.149 350.442V351.913C343.149 352.109 343.308 352.268 343.504 352.268Z" fill="#3F3D56"/>
<path d="M336.232 352.268H339.158C339.354 352.268 339.513 352.109 339.513 351.913V350.442C339.513 350.246 339.354 350.087 339.158 350.087H336.232C336.036 350.087 335.877 350.246 335.877 350.442V351.913C335.877 352.109 336.036 352.268 336.232 352.268Z" fill="#3F3D56"/>
<path d="M328.961 352.268H331.886C332.083 352.268 332.241 352.109 332.241 351.913V350.442C332.241 350.246 332.083 350.087 331.886 350.087H328.961C328.765 350.087 328.606 350.246 328.606 350.442V351.913C328.606 352.109 328.765 352.268 328.961 352.268Z" fill="#3F3D56"/>
<path d="M321.689 352.268H324.615C324.811 352.268 324.97 352.109 324.97 351.913V350.442C324.97 350.246 324.811 350.087 324.615 350.087H321.689C321.493 350.087 321.335 350.246 321.335 350.442V351.913C321.335 352.109 321.493 352.268 321.689 352.268Z" fill="#3F3D56"/>
<path d="M314.418 352.268H317.344C317.54 352.268 317.699 352.109 317.699 351.913V350.442C317.699 350.246 317.54 350.087 317.344 350.087H314.418C314.222 350.087 314.063 350.246 314.063 350.442V351.913C314.063 352.109 314.222 352.268 314.418 352.268Z" fill="#3F3D56"/>
<path d="M307.147 352.268H310.072C310.268 352.268 310.427 352.109 310.427 351.913V350.442C310.427 350.246 310.268 350.087 310.072 350.087H307.147C306.95 350.087 306.792 350.246 306.792 350.442V351.913C306.792 352.109 306.95 352.268 307.147 352.268Z" fill="#3F3D56"/>
<path d="M299.875 352.268H302.801C302.997 352.268 303.156 352.109 303.156 351.913V350.442C303.156 350.246 302.997 350.087 302.801 350.087H299.875C299.679 350.087 299.52 350.246 299.52 350.442V351.913C299.52 352.109 299.679 352.268 299.875 352.268Z" fill="#3F3D56"/>
<path d="M292.604 352.268H295.53C295.726 352.268 295.885 352.109 295.885 351.913V350.442C295.885 350.246 295.726 350.087 295.53 350.087H292.604C292.408 350.087 292.249 350.246 292.249 350.442V351.913C292.249 352.109 292.408 352.268 292.604 352.268Z" fill="#3F3D56"/>
<path d="M285.332 352.268H288.258C288.454 352.268 288.613 352.109 288.613 351.913V350.442C288.613 350.246 288.454 350.087 288.258 350.087H285.332C285.136 350.087 284.977 350.246 284.977 350.442V351.913C284.977 352.109 285.136 352.268 285.332 352.268Z" fill="#3F3D56"/>
<path d="M278.061 352.268H280.987C281.183 352.268 281.342 352.109 281.342 351.913V350.442C281.342 350.246 281.183 350.087 280.987 350.087H278.061C277.865 350.087 277.706 350.246 277.706 350.442V351.913C277.706 352.109 277.865 352.268 278.061 352.268Z" fill="#3F3D56"/>
<path d="M270.79 352.268H273.715C273.911 352.268 274.07 352.109 274.07 351.913V350.442C274.07 350.246 273.911 350.087 273.715 350.087H270.79C270.594 350.087 270.435 350.246 270.435 350.442V351.913C270.435 352.109 270.594 352.268 270.79 352.268Z" fill="#3F3D56"/>
<path d="M263.518 352.268H266.444C266.64 352.268 266.799 352.109 266.799 351.913V350.442C266.799 350.246 266.64 350.087 266.444 350.087H263.518C263.322 350.087 263.163 350.246 263.163 350.442V351.913C263.163 352.109 263.322 352.268 263.518 352.268Z" fill="#3F3D56"/>
<path d="M256.247 352.268H259.172C259.368 352.268 259.527 352.109 259.527 351.913V350.442C259.527 350.246 259.368 350.087 259.172 350.087H256.247C256.051 350.087 255.892 350.246 255.892 350.442V351.913C255.892 352.109 256.051 352.268 256.247 352.268Z" fill="#3F3D56"/>
<path d="M304.965 356.631H333.341C333.537 356.631 333.696 356.472 333.696 356.276V354.804C333.696 354.608 333.537 354.449 333.341 354.449H304.965C304.769 354.449 304.61 354.608 304.61 354.804V356.276C304.61 356.472 304.769 356.631 304.965 356.631Z" fill="#3F3D56"/>
<path d="M224.462 178.758H410.118C410.311 178.754 410.495 178.675 410.63 178.537C410.765 178.399 410.841 178.213 410.841 178.02C410.841 177.827 410.765 177.642 410.63 177.504C410.495 177.366 410.311 177.286 410.118 177.282H224.462C224.269 177.286 224.086 177.366 223.951 177.504C223.816 177.642 223.74 177.827 223.74 178.02C223.74 178.213 223.816 178.399 223.951 178.537C224.086 178.675 224.269 178.754 224.462 178.758Z" fill="#3F3D56"/>
<path d="M397.481 173.512C399.87 173.512 401.807 171.532 401.807 169.089C401.807 166.646 399.87 164.666 397.481 164.666C395.091 164.666 393.154 166.646 393.154 169.089C393.154 171.532 395.091 173.512 397.481 173.512Z" fill="#4E2ECF"/>
<path d="M382.533 173.512C384.923 173.512 386.86 171.532 386.86 169.089C386.86 166.646 384.923 164.666 382.533 164.666C380.144 164.666 378.207 166.646 378.207 169.089C378.207 171.532 380.144 173.512 382.533 173.512Z" fill="#6FCF97"/>
<path d="M367.586 173.512C369.976 173.512 371.913 171.532 371.913 169.089C371.913 166.646 369.976 164.666 367.586 164.666C365.196 164.666 363.259 166.646 363.259 169.089C363.259 171.532 365.196 173.512 367.586 173.512Z" fill="white"/>
<path d="M232.67 166.567C232.67 166.671 232.69 166.775 232.73 166.872C232.769 166.969 232.827 167.057 232.901 167.131C232.975 167.205 233.062 167.264 233.159 167.305C233.255 167.345 233.358 167.366 233.463 167.367H244.079C244.289 167.362 244.489 167.275 244.635 167.125C244.782 166.975 244.864 166.773 244.864 166.563C244.864 166.353 244.782 166.152 244.635 166.001C244.489 165.851 244.289 165.764 244.079 165.76H233.463C233.251 165.762 233.049 165.848 232.9 166C232.752 166.151 232.669 166.355 232.67 166.567Z" fill="#3F3D56"/>
<path d="M232.67 169.584C232.67 169.689 232.69 169.793 232.73 169.889C232.769 169.986 232.827 170.074 232.901 170.149C232.975 170.223 233.062 170.282 233.159 170.322C233.255 170.363 233.358 170.384 233.463 170.384H244.079C244.289 170.38 244.489 170.293 244.636 170.143C244.783 169.993 244.865 169.791 244.865 169.581C244.865 169.371 244.783 169.169 244.636 169.019C244.489 168.869 244.289 168.782 244.079 168.777H233.463C233.251 168.78 233.049 168.866 232.9 169.017C232.752 169.169 232.669 169.372 232.67 169.584Z" fill="#3F3D56"/>
<path d="M232.67 172.595C232.669 172.807 232.752 173.011 232.9 173.162C233.049 173.313 233.251 173.399 233.463 173.402H244.079C244.289 173.397 244.489 173.31 244.635 173.16C244.782 173.01 244.864 172.808 244.864 172.598C244.864 172.388 244.782 172.187 244.635 172.037C244.489 171.887 244.289 171.8 244.079 171.795H233.463C233.358 171.795 233.255 171.816 233.159 171.857C233.062 171.897 232.975 171.956 232.901 172.031C232.827 172.105 232.769 172.193 232.73 172.29C232.69 172.387 232.67 172.49 232.67 172.595Z" fill="#3F3D56"/>
<path d="M235.951 195.917H232.137C230.98 195.917 230.042 196.854 230.042 198.011C230.042 199.167 230.98 200.105 232.137 200.105H235.951C237.108 200.105 238.045 199.167 238.045 198.011C238.045 196.854 237.108 195.917 235.951 195.917Z" fill="#6FCF97"/>
<path d="M279.58 195.917H275.765C274.608 195.917 273.671 196.854 273.671 198.011C273.671 199.167 274.608 200.105 275.765 200.105H279.58C280.736 200.105 281.674 199.167 281.674 198.011C281.674 196.854 280.736 195.917 279.58 195.917Z" fill="#E6E6E6"/>
<path d="M291.941 195.917H288.126C286.97 195.917 286.032 196.854 286.032 198.011C286.032 199.167 286.97 200.105 288.126 200.105H291.941C293.098 200.105 294.035 199.167 294.035 198.011C294.035 196.854 293.098 195.917 291.941 195.917Z" fill="#4E2ECF"/>
<path d="M267.713 195.567H244.004C242.847 195.567 241.91 196.505 241.91 197.662C241.91 198.818 242.847 199.756 244.004 199.756H267.713C268.869 199.756 269.807 198.818 269.807 197.662C269.807 196.505 268.869 195.567 267.713 195.567Z" fill="#4E2ECF"/>
<path d="M325.884 195.567H302.175C301.018 195.567 300.081 196.505 300.081 197.662C300.081 198.818 301.018 199.756 302.175 199.756H325.884C327.04 199.756 327.978 198.818 327.978 197.662C327.978 196.505 327.04 195.567 325.884 195.567Z" fill="#E6E6E6"/>
<path d="M247.586 205.369H243.771C242.614 205.369 241.677 206.307 241.677 207.463C241.677 208.62 242.614 209.558 243.771 209.558H247.586C248.742 209.558 249.68 208.62 249.68 207.463C249.68 206.307 248.742 205.369 247.586 205.369Z" fill="#E6E6E6"/>
<path d="M291.214 205.369H287.399C286.243 205.369 285.305 206.307 285.305 207.463C285.305 208.62 286.243 209.558 287.399 209.558H291.214C292.371 209.558 293.308 208.62 293.308 207.463C293.308 206.307 292.371 205.369 291.214 205.369Z" fill="#E6E6E6"/>
<path d="M303.575 205.369H299.761C298.604 205.369 297.667 206.307 297.667 207.463C297.667 208.62 298.604 209.558 299.761 209.558H303.575C304.732 209.558 305.669 208.62 305.669 207.463C305.669 206.307 304.732 205.369 303.575 205.369Z" fill="#6FCF97"/>
<path d="M279.347 205.02H255.638C254.482 205.02 253.544 205.958 253.544 207.114C253.544 208.271 254.482 209.208 255.638 209.208H279.347C280.504 209.208 281.441 208.271 281.441 207.114C281.441 205.958 280.504 205.02 279.347 205.02Z" fill="#E6E6E6"/>
<path d="M337.518 205.02H313.809C312.653 205.02 311.715 205.958 311.715 207.114C311.715 208.271 312.653 209.208 313.809 209.208H337.518C338.675 209.208 339.612 208.271 339.612 207.114C339.612 205.958 338.675 205.02 337.518 205.02Z" fill="#E6E6E6"/>
<path d="M259.22 214.822H255.405C254.249 214.822 253.311 215.76 253.311 216.916C253.311 218.073 254.249 219.01 255.405 219.01H259.22C260.376 219.01 261.314 218.073 261.314 216.916C261.314 215.76 260.376 214.822 259.22 214.822Z" fill="#E6E6E6"/>
<path d="M302.848 214.822H299.034C297.877 214.822 296.939 215.76 296.939 216.916C296.939 218.073 297.877 219.01 299.034 219.01H302.848C304.005 219.01 304.942 218.073 304.942 216.916C304.942 215.76 304.005 214.822 302.848 214.822Z" fill="#E6E6E6"/>
<path d="M315.21 214.822H311.395C310.238 214.822 309.301 215.76 309.301 216.916C309.301 218.073 310.238 219.01 311.395 219.01H315.21C316.366 219.01 317.304 218.073 317.304 216.916C317.304 215.76 316.366 214.822 315.21 214.822Z" fill="#E6E6E6"/>
<path d="M290.981 214.473H267.272C266.116 214.473 265.178 215.411 265.178 216.567C265.178 217.724 266.116 218.661 267.272 218.661H290.981C292.138 218.661 293.075 217.724 293.075 216.567C293.075 215.411 292.138 214.473 290.981 214.473Z" fill="#4E2ECF"/>
<path d="M349.152 214.473H325.443C324.287 214.473 323.349 215.411 323.349 216.567C323.349 217.724 324.287 218.661 325.443 218.661H349.152C350.309 218.661 351.246 217.724 351.246 216.567C351.246 215.411 350.309 214.473 349.152 214.473Z" fill="#4E2ECF"/>
<path d="M270.854 224.275H267.039C265.883 224.275 264.945 225.213 264.945 226.369C264.945 227.526 265.883 228.463 267.039 228.463H270.854C272.011 228.463 272.948 227.526 272.948 226.369C272.948 225.213 272.011 224.275 270.854 224.275Z" fill="#E6E6E6"/>
<path d="M314.483 224.275H310.668C309.511 224.275 308.574 225.213 308.574 226.369C308.574 227.526 309.511 228.463 310.668 228.463H314.483C315.639 228.463 316.577 227.526 316.577 226.369C316.577 225.213 315.639 224.275 314.483 224.275Z" fill="#E6E6E6"/>
<path d="M326.844 224.275H323.029C321.873 224.275 320.935 225.213 320.935 226.369C320.935 227.526 321.873 228.463 323.029 228.463H326.844C328 228.463 328.938 227.526 328.938 226.369C328.938 225.213 328 224.275 326.844 224.275Z" fill="#E6E6E6"/>
<path d="M302.615 223.926H278.906C277.75 223.926 276.812 224.863 276.812 226.02C276.812 227.177 277.75 228.114 278.906 228.114H302.615C303.772 228.114 304.71 227.177 304.71 226.02C304.71 224.863 303.772 223.926 302.615 223.926Z" fill="#E6E6E6"/>
<path d="M279.58 261.863H275.765C274.608 261.863 273.671 262.801 273.671 263.958C273.671 265.114 274.608 266.052 275.765 266.052H279.58C280.736 266.052 281.674 265.114 281.674 263.958C281.674 262.801 280.736 261.863 279.58 261.863Z" fill="#E6E6E6"/>
<path d="M291.941 261.863H288.126C286.97 261.863 286.032 262.801 286.032 263.958C286.032 265.114 286.97 266.052 288.126 266.052H291.941C293.098 266.052 294.035 265.114 294.035 263.958C294.035 262.801 293.098 261.863 291.941 261.863Z" fill="#6FCF97"/>
<path d="M325.884 262.213H302.175C301.018 262.213 300.081 263.15 300.081 264.307C300.081 265.463 301.018 266.401 302.175 266.401H325.884C327.04 266.401 327.978 265.463 327.978 264.307C327.978 263.15 327.04 262.213 325.884 262.213Z" fill="#E6E6E6"/>
<path d="M235.951 261.863H232.137C230.98 261.863 230.042 262.801 230.042 263.958C230.042 265.114 230.98 266.052 232.137 266.052H235.951C237.108 266.052 238.045 265.114 238.045 263.958C238.045 262.801 237.108 261.863 235.951 261.863Z" fill="#E6E6E6"/>
<path d="M267.713 262.213H244.004C242.847 262.213 241.91 263.15 241.91 264.307C241.91 265.463 242.847 266.401 244.004 266.401H267.713C268.869 266.401 269.807 265.463 269.807 264.307C269.807 263.15 268.869 262.213 267.713 262.213Z" fill="#4E2ECF"/>
<path d="M247.586 252.411H243.771C242.614 252.411 241.677 253.348 241.677 254.505C241.677 255.661 242.614 256.599 243.771 256.599H247.586C248.742 256.599 249.68 255.661 249.68 254.505C249.68 253.348 248.742 252.411 247.586 252.411Z" fill="#E6E6E6"/>
<path d="M291.214 252.411H287.399C286.243 252.411 285.305 253.348 285.305 254.505C285.305 255.661 286.243 256.599 287.399 256.599H291.214C292.371 256.599 293.308 255.661 293.308 254.505C293.308 253.348 292.371 252.411 291.214 252.411Z" fill="#E6E6E6"/>
<path d="M303.575 252.411H299.761C298.604 252.411 297.667 253.348 297.667 254.505C297.667 255.661 298.604 256.599 299.761 256.599H303.575C304.732 256.599 305.669 255.661 305.669 254.505C305.669 253.348 304.732 252.411 303.575 252.411Z" fill="#E6E6E6"/>
<path d="M279.347 252.76H255.638C254.482 252.76 253.544 253.697 253.544 254.854C253.544 256.01 254.482 256.948 255.638 256.948H279.347C280.504 256.948 281.441 256.01 281.441 254.854C281.441 253.697 280.504 252.76 279.347 252.76Z" fill="#E6E6E6"/>
<path d="M259.22 242.958H255.405C254.249 242.958 253.311 243.895 253.311 245.052C253.311 246.208 254.249 247.146 255.405 247.146H259.22C260.376 247.146 261.314 246.208 261.314 245.052C261.314 243.895 260.376 242.958 259.22 242.958Z" fill="#E6E6E6"/>
<path d="M302.848 242.958H299.034C297.877 242.958 296.939 243.895 296.939 245.052C296.939 246.208 297.877 247.146 299.034 247.146H302.848C304.005 247.146 304.942 246.208 304.942 245.052C304.942 243.895 304.005 242.958 302.848 242.958Z" fill="#E6E6E6"/>
<path d="M315.21 242.958H311.395C310.238 242.958 309.301 243.895 309.301 245.052C309.301 246.208 310.238 247.146 311.395 247.146H315.21C316.366 247.146 317.304 246.208 317.304 245.052C317.304 243.895 316.366 242.958 315.21 242.958Z" fill="#E6E6E6"/>
<path d="M290.981 243.307H267.272C266.116 243.307 265.178 244.245 265.178 245.401C265.178 246.558 266.116 247.495 267.272 247.495H290.981C292.138 247.495 293.075 246.558 293.075 245.401C293.075 244.245 292.138 243.307 290.981 243.307Z" fill="#4E2ECF"/>
<path d="M270.854 233.505H267.039C265.883 233.505 264.945 234.443 264.945 235.599C264.945 236.756 265.883 237.693 267.039 237.693H270.854C272.011 237.693 272.948 236.756 272.948 235.599C272.948 234.443 272.011 233.505 270.854 233.505Z" fill="#6FCF97"/>
<path d="M314.483 233.505H310.668C309.511 233.505 308.574 234.443 308.574 235.599C308.574 236.756 309.511 237.693 310.668 237.693H314.483C315.639 237.693 316.577 236.756 316.577 235.599C316.577 234.443 315.639 233.505 314.483 233.505Z" fill="#4E2ECF"/>
<path d="M326.844 233.505H323.029C321.873 233.505 320.935 234.443 320.935 235.599C320.935 236.756 321.873 237.693 323.029 237.693H326.844C328 237.693 328.938 236.756 328.938 235.599C328.938 234.443 328 233.505 326.844 233.505Z" fill="#E6E6E6"/>
<path d="M302.615 233.854H278.906C277.75 233.854 276.812 234.792 276.812 235.948C276.812 237.105 277.75 238.042 278.906 238.042H302.615C303.772 238.042 304.71 237.105 304.71 235.948C304.71 234.792 303.772 233.854 302.615 233.854Z" fill="#E6E6E6"/>
<path d="M254.435 397.632C254.275 397.712 254.115 397.792 253.955 397.864C252.944 398.366 251.926 398.861 250.901 399.348C247.833 400.809 244.725 402.198 241.579 403.514C233.301 406.977 224.807 409.899 216.151 412.262C214.697 403.194 213.286 381.809 211.934 366.081C211.679 363.122 211.425 360.366 211.17 357.93C210.929 354.732 210.469 351.554 209.796 348.419C209.73 348.173 209.635 347.936 209.512 347.714C209.651 348.971 209.796 352.724 209.934 357.93C210.007 360.366 210.072 363.122 210.145 366.081C210.487 381.22 210.843 401.82 211.199 413.549C210.189 413.796 209.171 414.043 208.153 414.276C207.513 414.429 206.866 414.574 206.218 414.712C205.433 414.887 204.648 415.061 203.862 415.221C203.041 415.396 202.219 415.563 201.397 415.723C187.97 418.361 174.318 419.685 160.634 419.679C159.725 419.679 158.823 419.671 157.914 419.664C157.638 419.664 157.362 419.657 157.078 419.65C156.278 419.635 155.449 419.62 154.606 419.599C138.435 419.151 122.37 416.836 106.731 412.698L107.364 366.081L107.473 357.93L107.516 354.84C107.156 355.834 106.941 356.874 106.876 357.93C106.622 359.915 106.36 362.729 106.098 366.081C105.102 378.995 104.077 399.828 103.015 411.68C90.4431 408.103 81.2521 404.838 69.7632 399.093C69.3196 398.875 68.8688 398.65 68.4253 398.424C68.5053 397.864 68.5925 397.304 68.6725 396.73C69.9741 387.684 68.4398 375.912 69.8796 366.081C70.9776 358.497 72.1119 351.211 73.2535 345.03C74.6351 337.592 76.0384 331.745 77.4273 328.902C79.027 325.623 80.6267 322.395 82.1755 319.304C82.8445 317.973 83.5014 316.667 84.1461 315.385C84.4951 314.694 84.8441 314.011 85.1859 313.342C86.742 310.295 88.2108 307.481 89.556 304.987C90.5013 303.234 91.3739 301.649 92.1737 300.26C93.1117 298.624 93.9407 297.272 94.6242 296.247C99.6727 288.594 107.185 282.896 115.915 280.097L116.133 280.039L116.344 280.126L116.584 280.235L130.443 275.167L136.631 260.268L168.414 258.312L173.548 262.216L176.173 264.216L178.972 266.347L184.121 270.266L185.582 270.717L187.756 271.386L202.626 275.952L202.779 275.887L202.997 275.945C210.942 278.488 217.896 283.444 222.892 290.124C223.386 290.764 223.844 291.426 224.288 292.095C225.495 293.883 227.124 296.712 229.043 300.26C229.836 301.722 230.672 303.307 231.552 304.987C232.083 305.997 236.664 320.293 241.121 334.894C245.288 348.564 249.345 362.504 249.876 366.081C249.97 366.743 250.072 367.412 250.167 368.073C250.77 372.211 251.367 376.377 251.941 380.442C252.792 386.47 253.621 392.287 254.413 397.486C254.421 397.537 254.428 397.581 254.435 397.632Z" fill="#3F3D56"/>
<path opacity="0.2" d="M220.753 344.997L214.574 321.152L209.118 341.728L220.753 344.997Z" fill="black"/>
<path d="M11.5102 344.72C11.8305 345.653 12.4382 346.46 13.246 347.026C14.0538 347.592 15.0201 347.887 16.0061 347.87L35.2694 347.374C36.2627 347.354 37.2231 347.014 38.007 346.404C38.7908 345.793 39.3561 344.946 39.6183 343.988L42.3443 314.839C43.3114 315.277 44.3643 315.493 45.4259 315.472C47.2885 315.425 49.0562 314.64 50.3402 313.29C51.6242 311.94 52.3193 310.135 52.2725 308.272C52.2257 306.41 51.441 304.642 50.0909 303.358C48.7408 302.074 46.9359 301.379 45.0733 301.426C44.649 301.424 44.2258 301.468 43.8108 301.557C43.3596 301.069 42.8111 300.681 42.2007 300.417C41.5903 300.154 40.9315 300.021 40.2667 300.028L10.6354 300.793C10.3896 300.802 10.145 300.833 9.90445 300.884C9.25464 301.005 8.63832 301.264 8.09696 301.643C7.55561 302.023 7.10178 302.513 6.76604 303.083C6.4303 303.652 6.22043 304.287 6.15056 304.944C6.08069 305.601 6.15244 306.266 6.36097 306.893L11.5102 344.72ZM42.9033 312.859L44.8431 305.913C45.0637 305.111 45.0688 304.264 44.8579 303.459C44.952 303.459 45.035 303.415 45.1291 303.414C46.4592 303.387 47.7458 303.888 48.707 304.807C49.6682 305.727 50.2254 306.991 50.2566 308.32C50.2877 309.65 49.7902 310.938 48.8731 311.902C47.9561 312.866 46.6943 313.426 45.3644 313.461C44.5046 313.488 43.6537 313.28 42.9033 312.859Z" fill="#2F2E41"/>
<path d="M9.90442 300.884C10.5357 304.493 17.6333 307.031 26.1675 306.59C34.0154 306.228 40.4322 303.473 41.6078 300.207C41.1727 300.078 40.7203 300.018 40.2667 300.028L10.6353 300.793C10.3895 300.802 10.145 300.832 9.90442 300.884Z" fill="#3F3D56"/>
<path d="M27.7316 328.703C27.7706 328.693 27.8077 328.677 27.8414 328.654L32.0247 325.916C32.0753 325.883 32.1168 325.838 32.1456 325.785C32.1744 325.732 32.1895 325.673 32.1895 325.612C32.1895 325.552 32.1745 325.492 32.1457 325.439C32.117 325.386 32.0755 325.341 32.025 325.308L27.6768 322.46C27.6369 322.434 27.5922 322.416 27.5452 322.406C27.4982 322.397 27.4499 322.398 27.403 322.407C27.3562 322.417 27.3117 322.436 27.2721 322.463C27.2325 322.49 27.1986 322.524 27.1724 322.564C27.1462 322.604 27.1281 322.649 27.1192 322.696C27.1103 322.743 27.1108 322.791 27.1207 322.838C27.1305 322.885 27.1495 322.929 27.1766 322.969C27.2037 323.008 27.2383 323.042 27.2784 323.068L31.162 325.612L27.4434 328.046C27.3714 328.093 27.3184 328.164 27.2939 328.247C27.2694 328.329 27.2749 328.418 27.3095 328.496C27.344 328.575 27.4054 328.639 27.4827 328.677C27.56 328.715 27.6482 328.724 27.7316 328.703H27.7316Z" fill="#6FCF97"/>
<path d="M21.1243 329.007C21.1945 328.99 21.2578 328.951 21.3061 328.897C21.3544 328.843 21.3854 328.776 21.3953 328.704C21.4051 328.633 21.3933 328.56 21.3614 328.495C21.3295 328.43 21.2788 328.376 21.216 328.34L17.3599 326.129L21.087 323.36C21.1253 323.332 21.1576 323.296 21.1821 323.255C21.2066 323.214 21.2227 323.169 21.2297 323.122C21.2367 323.075 21.2343 323.026 21.2226 322.98C21.211 322.934 21.1903 322.89 21.1619 322.852C21.1334 322.814 21.0977 322.782 21.0568 322.757C21.0158 322.733 20.9705 322.716 20.9233 322.709C20.8761 322.702 20.8279 322.705 20.7817 322.717C20.7354 322.728 20.6919 322.749 20.6536 322.777L16.4808 325.877C16.4323 325.913 16.3936 325.96 16.368 326.015C16.3425 326.07 16.3309 326.13 16.3345 326.19C16.338 326.25 16.3565 326.309 16.3883 326.36C16.4201 326.411 16.4642 326.454 16.5166 326.484L20.8541 328.97C20.936 329.017 21.0329 329.031 21.1243 329.007Z" fill="#6FCF97"/>
<path d="M27.3155 331.102C27.3507 331.093 27.3843 331.079 27.4151 331.06C27.456 331.035 27.4915 331.003 27.5198 330.964C27.548 330.926 27.5683 330.882 27.5796 330.836C27.5909 330.789 27.593 330.741 27.5857 330.694C27.5784 330.647 27.5618 330.601 27.537 330.561L21.6068 320.811C21.5564 320.729 21.4755 320.67 21.382 320.648C21.2885 320.625 21.1899 320.641 21.1077 320.691C21.0256 320.741 20.9666 320.821 20.9437 320.915C20.9208 321.008 20.9358 321.107 20.9855 321.189L26.9156 330.939C26.9561 331.005 27.0168 331.057 27.0888 331.086C27.1607 331.116 27.2402 331.121 27.3155 331.102Z" fill="#6FCF97"/>
<path d="M570.914 398.423C570.47 398.648 570.019 398.874 569.576 399.092C558.087 404.836 548.896 408.101 536.324 411.678C535.262 399.826 534.237 378.994 533.24 366.08C532.979 362.727 532.717 359.913 532.462 357.928C532.398 356.873 532.183 355.832 531.823 354.838L531.866 357.928L531.975 366.08L532.608 412.696C516.969 416.834 500.904 419.15 484.733 419.597C483.889 419.619 483.061 419.633 482.261 419.648C481.977 419.655 481.701 419.662 481.424 419.662C480.516 419.67 479.614 419.677 478.705 419.677C461.664 419.69 444.684 417.631 428.14 413.547C428.496 401.818 428.852 381.219 429.194 366.08C429.267 363.12 429.332 360.364 429.405 357.928C429.543 352.722 429.688 348.97 429.827 347.712C429.704 347.935 429.609 348.172 429.543 348.417C428.869 351.553 428.41 354.73 428.169 357.928C427.914 360.364 427.66 363.12 427.405 366.08C426.053 381.808 424.642 403.193 423.188 412.26C414.532 409.897 406.038 406.975 397.76 403.513C393.397 401.695 389.112 399.734 384.904 397.63C385.704 392.395 386.54 386.527 387.398 380.441C388.067 375.721 388.758 370.871 389.463 366.08C390.554 358.677 427.609 278.743 436.342 275.943L436.56 275.885L436.713 275.95L451.583 271.384L453.757 270.715L455.218 270.264L460.366 266.345L463.166 264.214L465.791 262.215L470.925 258.31L502.708 260.266L508.896 275.165L522.755 280.233L522.995 280.124L523.206 280.037L523.424 280.095C532.154 282.894 539.666 288.592 544.715 296.245C545.398 297.27 546.227 298.623 547.165 300.259C547.965 301.648 548.838 303.233 549.783 304.985C551.128 307.479 552.597 310.293 554.153 313.34C554.495 314.009 554.844 314.692 555.193 315.383C555.84 316.663 556.497 317.969 557.163 319.303C558.712 322.393 560.312 325.621 561.912 328.901C563.3 331.744 564.704 337.59 566.085 345.029C567.227 351.209 568.361 358.495 569.459 366.079C570.899 375.91 569.365 387.683 570.666 396.728C570.746 397.303 570.834 397.863 570.914 398.423Z" fill="#3F3D56"/>
<path d="M477.698 252.962C498.113 252.962 514.663 236.412 514.663 215.996C514.663 195.581 498.113 179.031 477.698 179.031C457.282 179.031 440.732 195.581 440.732 215.996C440.732 236.412 457.282 252.962 477.698 252.962Z" fill="#FFB6B6"/>
<path opacity="0.2" d="M418.585 344.997L424.763 321.152L430.219 341.728L418.585 344.997Z" fill="black"/>
<path d="M582.999 329.461C580.788 359.913 583.079 373.322 570.877 398.43C559.776 403.864 548.212 408.297 536.324 411.678C535.088 412.028 533.849 412.367 532.608 412.696C516.969 416.834 500.904 419.15 484.733 419.597C483.89 419.619 483.061 419.633 482.261 419.648C481.977 419.655 481.701 419.662 481.425 419.662C480.516 419.67 479.614 419.677 478.705 419.677C461.664 419.69 444.684 417.631 428.14 413.547C426.482 413.14 424.831 412.711 423.188 412.26C414.532 409.897 406.038 406.975 397.76 403.513C393.397 401.695 389.112 399.734 384.904 397.63C383.951 397.15 382.999 396.67 382.061 396.176C377.24 387.697 374.499 377.387 374.44 364.996C377.778 343.647 575.626 311.05 582.999 329.461Z" fill="#2F2E41"/>
<path opacity="0.2" d="M582.993 334.676C583.106 332.791 583.232 330.843 583.379 328.815C576.006 310.404 378.159 343.002 374.821 364.351C374.83 366.308 374.914 368.207 375.055 370.062C383.137 348.991 571.095 318.009 582.993 334.676Z" fill="black"/>
<path d="M369.52 330.897L385.76 322.777L372.227 286.238L368.66 267.811C368.197 265.417 367.113 263.186 365.518 261.342C363.922 259.498 361.871 258.105 359.568 257.302C357.266 256.499 354.793 256.315 352.396 256.767C350 257.219 347.765 258.293 345.913 259.879C343.17 262.231 341.447 265.557 341.109 269.154C340.771 272.752 341.844 276.34 344.101 279.162L357.34 295.711L369.52 330.897Z" fill="#FFB6B6"/>
<path d="M385.76 316.011L364.107 326.837L380.539 378.325C381.719 382.023 383.834 385.352 386.68 387.992C389.525 390.631 393.005 392.49 396.78 393.389C401.436 394.497 406.323 394.094 410.734 392.238C415.145 390.382 418.85 387.169 421.312 383.066L464.886 308.378C467.974 303.232 468.927 297.082 467.542 291.242C466.156 285.402 462.543 280.336 457.472 277.124C454.745 275.397 451.685 274.264 448.491 273.797C445.297 273.331 442.04 273.543 438.933 274.418C435.826 275.294 432.939 276.814 430.458 278.879C427.977 280.945 425.959 283.509 424.535 286.406L397.94 343.077L385.76 316.011Z" fill="#3F3D56"/>
<path d="M152.341 250.411C174.804 250.411 193.014 232.201 193.014 209.738C193.014 187.275 174.804 169.066 152.341 169.066C129.879 169.066 111.669 187.275 111.669 209.738C111.669 232.201 129.879 250.411 152.341 250.411Z" fill="#A0616A"/>
<path d="M112.157 181.71C115.464 177.253 120.218 174.084 123.853 169.891C125.848 167.59 127.505 164.983 129.747 162.923C133.914 159.096 139.741 157.528 145.395 157.333C151.592 157.173 157.739 158.475 163.339 161.133C168.939 163.791 173.835 167.729 177.63 172.631C180.586 170.898 183.541 169.165 186.497 167.432C187.665 170.505 188.832 173.579 190 176.652C190.958 175.819 192.18 175.352 193.45 175.334C194.719 175.317 195.954 175.749 196.935 176.554C197.917 177.36 198.581 178.487 198.811 179.736C199.04 180.985 198.82 182.274 198.19 183.376C198.893 181.203 202.116 180.742 203.893 182.178C205.669 183.614 206.145 186.168 205.855 188.434C205.491 190.92 204.392 193.24 202.7 195.097C201.007 196.953 198.797 198.26 196.355 198.851C192.499 199.71 188.01 198.808 184.923 201.274C182.448 203.252 181.701 206.853 179.175 208.765C176.063 211.121 171.664 210.031 167.796 210.552C161.027 211.463 155.668 218.385 156.482 225.166C155.869 223.027 155.226 220.825 153.836 219.087C152.446 217.349 150.105 216.174 147.973 216.813C144.45 217.869 143.873 222.672 144.727 226.25C146.992 235.739 155.576 251.077 155.576 251.077C144.43 255.474 131.152 251.316 122.553 242.974C113.953 234.631 109.474 222.818 107.524 210.997C105.869 200.973 106.104 189.87 112.157 181.71Z" fill="#2F2E41"/>
<path d="M524.023 236.374C531.761 218.633 527.377 202.308 517.944 193.647V193.64C514.235 185.329 509.305 178.915 503.663 177.41C500.936 175.658 498.289 173.6 495.351 172.553C493.983 172.041 492.525 171.811 491.066 171.877C489.606 171.943 488.175 172.304 486.858 172.938L485.361 172.538C484.088 169.288 482.597 169.222 480.94 171.36C474.555 168.386 468.804 167.056 463.684 167.056C446.989 167.056 437.115 181.191 434.497 198.279L448.451 201.995L453.301 194.265L451.061 202.693L458.762 204.736C470.483 219.999 456.457 255.207 438.678 274.796C442.91 273.625 447.125 272.636 451.323 271.829L466.578 249.462L457.126 269.822C462.034 269.102 468.295 269.793 475.137 271.182C477.442 268.172 478.656 264.158 477.464 260.58C479.414 264.353 480.758 268.409 481.449 272.6C495.89 276.127 515.588 277.937 526.204 279.275C534.781 276.475 534.805 244.852 524.023 236.374Z" fill="#2F2E41"/>
<path d="M529.057 176.027C534.725 188.718 523.288 194.177 512.812 194.023C503.345 193.883 495.299 187.233 494.816 177.777C494.584 173.237 496.165 168.79 499.212 165.415C502.258 162.04 506.521 160.014 511.061 159.782C520.517 159.299 525.196 167.382 529.057 176.027Z" fill="#2F2E41"/>
<path d="M266.121 382.621L256.784 367.049L287.827 343.498L300.734 329.871C302.41 328.101 304.523 326.801 306.859 326.103C309.195 325.405 311.674 325.332 314.047 325.891C316.421 326.451 318.606 327.624 320.384 329.292C322.162 330.961 323.471 333.067 324.18 335.4C325.231 338.857 324.898 342.588 323.25 345.804C321.603 349.02 318.771 351.47 315.351 352.638L295.295 359.485L266.121 382.621Z" fill="#A0616A"/>
<path d="M272.868 382.107L258.333 394.221L254.413 397.486L253.955 397.864C252.945 398.366 251.927 398.861 250.901 399.348C247.833 400.809 244.726 402.198 241.579 403.514C233.301 406.977 224.808 409.899 216.151 412.262C214.508 412.713 212.857 413.142 211.2 413.549C210.189 413.796 209.171 414.043 208.153 414.276C207.513 414.429 206.866 414.574 206.219 414.712C205.433 414.887 204.648 415.061 203.863 415.221C203.041 415.396 202.219 415.563 201.398 415.723C199.187 413.619 197.426 411.088 196.224 408.283C195.021 405.478 194.402 402.458 194.403 399.406C194.403 399.21 194.403 399.006 194.41 398.802L196.744 338.937L197.777 312.404C197.936 306.403 200.435 300.703 204.741 296.521C209.047 292.339 214.817 290.006 220.82 290.022C221.518 290.022 222.208 290.059 222.892 290.124C223.386 290.764 223.845 291.426 224.288 292.095C225.495 293.883 227.124 296.712 229.044 300.26C229.836 301.722 230.672 303.307 231.552 304.987C232.083 305.998 236.664 320.293 241.121 334.894L239.158 350.142L235.61 377.628L250.167 368.074L260.42 361.34L261.634 363.369L264.797 368.648L270.905 378.828L272.868 382.107Z" fill="#3F3D56"/>
<path d="M264.899 364.998C264.891 366.234 264.862 367.448 264.797 368.648C264.645 371.958 264.261 375.252 263.648 378.508C262.644 383.975 260.854 389.268 258.333 394.222C257.998 394.883 257.642 395.538 257.278 396.178C256.34 396.672 255.388 397.152 254.435 397.632C254.275 397.712 254.115 397.792 253.955 397.865C249.905 399.879 245.78 401.762 241.579 403.514C233.301 406.977 224.807 409.899 216.151 412.262C214.508 412.713 212.857 413.142 211.199 413.549C207.964 414.349 204.696 415.073 201.397 415.723C187.97 418.361 174.318 419.686 160.634 419.679C159.725 419.679 158.823 419.671 157.914 419.664C157.638 419.664 157.362 419.657 157.078 419.65C156.278 419.635 155.449 419.621 154.606 419.599C138.435 419.152 122.37 416.836 106.731 412.698C105.488 412.371 104.249 412.032 103.015 411.68C91.1268 408.299 79.5632 403.865 68.4616 398.432C56.2602 373.323 58.5507 359.915 56.3402 329.462C60.8776 318.126 137.642 326.132 196.744 338.937C212.784 342.413 227.516 346.245 239.158 350.142C251.185 354.163 259.903 358.25 263.321 362.089C264.119 362.884 264.668 363.895 264.899 364.998Z" fill="#2F2E41"/>
<path opacity="0.2" d="M56.3446 334.676C56.2317 332.791 56.1055 330.843 55.9583 328.815C63.3315 310.404 261.179 343.002 264.517 364.351C264.507 366.308 264.424 368.207 264.283 370.062C256.2 348.991 68.2425 318.009 56.3446 334.676Z" fill="black"/>
</g>
<defs>
<filter id="filter0_d_30_3" x="233.294" y="-26.9469" width="166.83" height="166.83" filterUnits="userSpaceOnUse" color-interpolation-filters="sRGB">
<feFlood flood-opacity="0" result="BackgroundImageFix"/>
<feColorMatrix in="SourceAlpha" type="matrix" values="0 0 0 0 0 0 0 0 0 0 0 0 0 0 0 0 0 0 127 0" result="hardAlpha"/>
<feOffset dy="4"/>
<feGaussianBlur stdDeviation="32"/>
<feComposite in2="hardAlpha" operator="out"/>
<feColorMatrix type="matrix" values="0 0 0 0 0 0 0 0 0 0.975 0 0 0 0 0.40625 0 0 0 1 0"/>
<feBlend mode="normal" in2="BackgroundImageFix" result="effect1_dropShadow_30_3"/>
<feBlend mode="normal" in="SourceGraphic" in2="effect1_dropShadow_30_3" result="shape"/>
</filter>
<filter id="filter1_d_30_3" x="180.994" y="134.466" width="265.41" height="199.793" filterUnits="userSpaceOnUse" color-interpolation-filters="sRGB">
<feFlood flood-opacity="0" result="BackgroundImageFix"/>
<feColorMatrix in="SourceAlpha" type="matrix" values="0 0 0 0 0 0 0 0 0 0 0 0 0 0 0 0 0 0 127 0" result="hardAlpha"/>
<feOffset dy="4"/>
<feGaussianBlur stdDeviation="15"/>
<feComposite in2="hardAlpha" operator="out"/>
<feColorMatrix type="matrix" values="0 0 0 0 1 0 0 0 0 1 0 0 0 0 1 0 0 0 0.5 0"/>
<feBlend mode="normal" in2="BackgroundImageFix" result="effect1_dropShadow_30_3"/>
<feBlend mode="normal" in="SourceGraphic" in2="effect1_dropShadow_30_3" result="shape"/>
</filter>
<clipPath id="clip0_30_3">
<rect width="640" height="419.031" fill="white" transform="translate(0 0.647888)"/>
</clipPath>
</defs>
</svg>
